# xmcd
#
# Track frame offsets: 
#        150
#        21315
#        40370
#        62264
#        78209
#        95336
#        115250
#        137855
#        152439
#        172014
#        187399
#        213900
#        228294
#        246614
#
# Disc length: 3521 seconds
#
# Revision: 0
# Processed by: cddbd v1.5.2PL0 Copyright (c) Steve Scherf et al.
# Submitted via: ExactAudioCopy v1.3
#
DISCID=be0dbf0e
DTITLE=Awek - Let's Party Down [disk 1]
DYEAR=2019
DGENRE=Blues Rock
TTITLE0=Every Time
TTITLE1=Want You To Be My Girl
TTITLE2=Snake Boy
TTITLE3=Can't Stop Thinking
TTITLE4=Let's Party Down
TTITLE5=She's Messing Around
TTITLE6=Don't Want To Lose You
TTITLE7=Early Every Morning
TTITLE8=Come On In This House
TTITLE9=Margarita
TTITLE10=Feel So Cold
TTITLE11=Oh Cherie
TTITLE12=Here I Am Again
TTITLE13=I've Been Waiting
EXTD=
EXTT0=
EXTT1=
EXTT2=
EXTT3=
EXTT4=
EXTT5=
EXTT6=
EXTT7=
EXTT8=
EXTT9=
EXTT10=
EXTT11=
EXTT12=
EXTT13=
PLAYORDER=
